<svg width="86" height="68" viewBox="0 0 86 68" fill="none" xmlns="http://www.w3.org/2000/svg">
<path d="M7.68613 9.741C13.6489 3.27675 22.6716 0 34.4994 0H38.7494V11.9807L35.3324 12.665C29.5099 13.8295 25.4596 16.1202 23.2921 19.482C22.1612 21.293 21.5198 23.3667 21.4306 25.5H34.4994C35.6265 25.5 36.7076 25.9478 37.5046 26.7448C38.3016 27.5418 38.7494 28.6228 38.7494 29.75V59.5C38.7494 64.1878 34.9371 68 30.2494 68H4.74938C3.62221 68 2.54121 67.5522 1.74418 66.7552C0.947146 65.9582 0.49938 64.8772 0.49938 63.75V42.5L0.51213 30.0943C0.47388 29.6225 -0.33362 18.445 7.68613 9.741ZM76.9994 68H51.4994C50.3722 68 49.2912 67.5522 48.4942 66.7552C47.6971 65.9582 47.2494 64.8772 47.2494 63.75V42.5L47.2621 30.0943C47.2239 29.6225 46.4164 18.445 54.4361 9.741C60.3989 3.27675 69.4216 0 81.2494 0H85.4994V11.9807L82.0824 12.665C76.2599 13.8295 72.2096 16.1202 70.0421 19.482C68.9112 21.293 68.2697 23.3667 68.1806 25.5H81.2494C82.3766 25.5 83.4576 25.9478 84.2546 26.7448C85.0516 27.5418 85.4994 28.6228 85.4994 29.75V59.5C85.4994 64.1878 81.6871 68 76.9994 68Z" fill="url(#paint0_linear_396_74)"/>
<defs>
<linearGradient id="paint0_linear_396_74" x1="0.472656" y1="36.6154" x2="85.4994" y2="36.6154" gradientUnits="userSpaceOnUse">
<stop stop-color="#815CC8"/>
<stop offset="1" stop-color="#1BABFE"/>
</linearGradient>
</defs>
</svg>
