<svg width="86" height="68" viewBox="0 0 86 68" fill="none" xmlns="http://www.w3.org/2000/svg">
<path d="M78.3137 58.259C86.3335 49.555 85.526 38.3775 85.5005 38.25V4.25C85.5005 3.12283 85.0527 2.04183 84.2557 1.2448C83.4586 0.447767 82.3776 0 81.2505 0H55.7505C51.0627 0 47.2505 3.81225 47.2505 8.5V38.25C47.2505 39.3772 47.6982 40.4582 48.4953 41.2552C49.2923 42.0522 50.3733 42.5 51.5005 42.5H64.5819C64.4922 44.6011 63.8644 46.644 62.7587 48.433C60.5997 51.8372 56.5325 54.162 50.6632 55.335L47.2505 56.015V68H51.5005C63.3282 68 72.351 64.7232 78.3137 58.259ZM31.534 58.259C39.558 49.555 38.7462 38.3775 38.7207 38.25V4.25C38.7207 3.12283 38.2729 2.04183 37.4759 1.2448C36.6789 0.447767 35.5979 0 34.4707 0H8.9707C4.28295 0 0.470703 3.81225 0.470703 8.5V38.25C0.470703 39.3772 0.91847 40.4582 1.7155 41.2552C2.51253 42.0522 3.59353 42.5 4.7207 42.5H17.8022C17.7124 44.6011 17.0846 46.644 15.979 48.433C13.82 51.8372 9.7527 54.162 3.88345 55.335L0.470703 56.015V68H4.7207C16.5485 68 25.5712 64.7232 31.534 58.259Z" fill="url(#paint0_linear_396_76)"/>
<defs>
<linearGradient id="paint0_linear_396_76" x1="0.470703" y1="36.6154" x2="85.5342" y2="36.6154" gradientUnits="userSpaceOnUse">
<stop stop-color="#815CC8"/>
<stop offset="1" stop-color="#1BABFE"/>
</linearGradient>
</defs>
</svg>
